<svg width="1280" height="1280" viewBox="0 0 1280 1280" fill="none" xmlns="http://www.w3.org/2000/svg">
<circle cx="640" cy="640" r="540" fill="url(#paint0_linear_303_10)"/>
<path fill-rule="evenodd" clip-rule="evenodd" d="M480.821 380.007L475.75 380.032C456.352 380.083 436.963 380.277 417.574 380.741C411.068 380.909 404.563 381.053 398.049 381.163C392.54 381.264 387.03 381.365 381.52 381.483C378.095 381.559 374.661 381.635 371.235 381.694C367.961 381.745 364.696 381.795 361.422 381.88C360.815 381.892 360.207 381.907 359.6 381.922C358.992 381.937 358.385 381.951 357.777 381.964C357.195 381.968 356.615 381.975 356.035 381.981C355.455 381.987 354.875 381.994 354.292 381.998C353.204 382.032 352.141 382.065 351.086 382.099C347.736 382.158 346.277 382.361 343.568 384.377C341.248 387.373 341.079 388.824 341.02 392.503C341.037 393.261 341.045 393.995 341.054 394.729L341.054 394.73L341.054 394.731C341.037 397.27 341.02 399.81 341.037 402.349C341.046 404.231 341.046 406.104 341.037 407.977C341.02 413.149 341.012 418.321 341.02 423.494C341.037 429.147 341.037 434.808 341.02 440.461C341.003 451.54 340.995 462.61 341.012 473.688L341.012 473.715C341.02 483.451 341.029 493.179 341.02 502.916V504.873C341.02 507.489 341.02 510.104 341.012 512.72C341.003 537.29 341.012 561.852 341.037 586.422C341.054 608.292 341.054 630.17 341.037 652.049C341.012 676.661 341.003 701.273 341.012 725.885C341.012 727.192 341.014 728.501 341.016 729.811C341.018 731.123 341.02 732.436 341.02 733.749V735.706C341.02 745.452 341.02 755.205 341.012 764.951C340.995 776.088 340.995 787.226 341.02 798.372C341.029 803.493 341.037 808.623 341.029 813.753C341.02 819.052 341.012 824.359 341.029 829.666L341.029 829.669C341.037 831.592 341.046 833.515 341.046 835.438C341.044 835.971 341.042 836.504 341.04 837.037C341.032 839.17 341.024 841.305 341.037 843.445C341.037 844.254 341.046 845.047 341.054 845.84L341.054 845.841C341.052 845.991 341.05 846.14 341.048 846.289C341.014 848.745 340.981 851.117 341.586 853.528C343.611 855.671 344.851 856.692 347.72 857.324C348.403 857.333 349.061 857.333 349.711 857.333C350.395 857.34 351.061 857.348 351.729 857.355L352.023 857.358C352.441 857.354 352.856 857.352 353.267 857.35C353.685 857.348 354.099 857.346 354.512 857.341C357.296 857.358 360.081 857.375 362.865 857.367C364.856 857.358 366.847 857.35 368.839 857.358C372.99 857.367 377.141 857.367 381.284 857.358C386.692 857.333 392.092 857.324 397.492 857.341C401.703 857.358 405.913 857.367 410.123 857.358C411.127 857.358 412.134 857.356 413.14 857.354C414.146 857.352 415.152 857.35 416.156 857.35C419.05 857.367 421.936 857.375 424.83 857.358C425.278 857.354 425.718 857.352 426.155 857.35C426.598 857.348 427.037 857.346 427.479 857.341L428.218 857.346C428.819 857.35 429.048 857.352 429.985 857.358C430.761 857.35 431.521 857.341 432.28 857.333C434.862 857.324 435.849 857.071 437.984 855.561C439.461 853.528 439.461 853.528 439.882 850.836C439.891 849.731 439.891 848.659 439.891 847.588C439.908 845.672 439.925 843.757 439.916 841.842C439.908 840.441 439.908 839.032 439.916 837.631C439.941 833.809 439.95 829.987 439.95 826.165C439.941 822.098 439.95 818.039 439.967 813.973C440.001 806.303 440.017 798.625 440.026 790.955C440.034 779.573 440.068 768.182 440.102 756.8C440.102 756.361 440.104 755.931 440.106 755.505C440.108 755.087 440.11 754.674 440.11 754.26C440.114 753.424 440.117 752.587 440.119 751.749C440.121 750.914 440.123 750.078 440.127 749.24C440.144 744.355 440.152 739.469 440.161 734.576C440.161 731.488 440.169 728.391 440.178 725.303V725.299C440.178 723.866 440.178 722.433 440.186 721C440.186 720.33 440.185 719.661 440.184 718.993C440.182 717.657 440.181 716.322 440.186 714.984C440.186 714.368 440.186 713.777 440.195 713.178C440.195 711.305 440.22 709.432 440.304 707.559C440.679 707.104 440.9 706.836 441.183 706.69C441.589 706.482 442.122 706.523 443.418 706.622C444.956 706.631 444.962 706.631 446.472 706.631H446.489C447.645 706.639 448.809 706.639 449.965 706.639C451.881 706.656 453.796 706.664 455.711 706.664L470.148 706.715C471.995 706.723 473.842 706.733 475.688 706.743C492.566 706.837 509.413 706.931 526.198 704.893C527.07 704.775 527.941 704.657 528.811 704.539C529.683 704.42 530.555 704.302 531.429 704.184C539.985 703.095 548.422 701.703 556.851 699.83C557.839 699.611 558.792 699.391 559.746 699.172C564.968 697.999 570.065 696.725 575.102 694.886L575.512 694.73C577.466 693.989 579.408 693.253 581.388 692.582C602.38 685.731 623.086 673.345 638.391 657.297C638.52 657.156 638.648 657.016 638.776 656.877C639.281 656.325 639.774 655.786 640.273 655.246C644.703 650.496 648.964 645.628 652.963 640.506C653.218 640.178 653.468 639.854 653.716 639.533C654.018 639.142 654.316 638.755 654.617 638.371C675.837 612.24 681.684 577.183 681.769 544.47C681.769 543.821 681.769 543.188 681.777 542.555C681.786 534.523 681.667 526.549 680.773 518.559C675.905 480.16 657.081 443.929 626.495 419.899C625.727 419.3 624.984 418.726 624.242 418.153C619.053 413.917 613.796 410.264 607.966 406.973C607.406 406.661 607.13 406.507 606.854 406.354C606.584 406.204 606.314 406.054 605.781 405.758C596.347 400.51 586.459 396.426 576.249 392.941C575.445 392.673 575.046 392.54 574.647 392.408C574.255 392.279 573.863 392.15 573.085 391.895C563.914 388.841 554.801 386.208 545.225 384.715C544.55 384.605 543.9 384.504 543.242 384.403C522.528 380.943 501.797 379.905 480.821 380.007ZM455.109 468.617C453.97 468.625 452.856 468.634 451.751 468.642C451.36 468.644 450.969 468.644 450.579 468.644C447.656 468.641 444.773 468.638 441.989 469.621C440.158 472.009 439.483 473.612 439.145 476.624V479.847C439.128 481.746 439.128 483.653 439.137 485.551C439.145 486.943 439.145 488.335 439.145 489.728C439.128 493.524 439.128 497.321 439.137 501.11C439.154 505.143 439.154 509.176 439.154 513.209C439.145 519.959 439.154 526.709 439.171 533.459C439.188 541.331 439.196 549.195 439.196 557.067C439.188 564.686 439.188 572.314 439.196 579.933C439.204 583.164 439.204 586.396 439.204 589.628C439.204 593.5 439.204 597.373 439.213 601.246C439.217 601.958 439.219 602.67 439.221 603.381C439.223 604.094 439.225 604.806 439.23 605.515C439.221 607.507 439.221 609.498 439.23 611.489C439.23 611.795 439.232 612.097 439.234 612.396C439.236 612.691 439.238 612.985 439.238 613.278C439.243 615.101 439.245 615.893 439.284 616.683C439.314 617.29 439.366 617.895 439.458 618.965C440.117 619.624 440.61 620.117 441.183 620.487C442.883 621.583 445.285 621.589 454.814 621.614C455.835 621.614 456.83 621.614 457.826 621.606C459.952 621.614 462.087 621.614 464.213 621.614C467.554 621.606 470.887 621.606 474.22 621.606C476.405 621.614 478.591 621.614 480.776 621.614C481.316 621.614 481.848 621.612 482.375 621.61C482.894 621.608 483.408 621.606 483.923 621.606C500.958 621.639 517.007 619.302 533.299 614.349C550.225 609.017 567.547 598.479 576.035 582.194C576.364 581.502 576.677 580.827 576.989 580.152C582.583 569.319 583.823 557.81 583.992 545.761C583.996 545.048 583.998 544.696 583.999 544.344C584 544 584 543.656 584 542.977C584.034 537.239 583.739 531.856 582.49 526.254C582.271 525.351 582.271 525.351 582.051 524.465C578.929 511.623 572.753 500.114 563.134 491.002C562.4 490.335 561.675 489.677 560.958 489.027C552.858 481.442 543.323 477.662 532.92 474.287C532.526 474.159 532.135 474.036 531.747 473.914C531.444 473.819 531.143 473.725 530.844 473.629C525.513 471.885 521.922 470.71 518.248 469.928C510.671 468.315 502.739 468.371 478.447 468.541L478.444 468.541C475.77 468.558 473.097 468.575 470.432 468.575C469.339 468.578 468.247 468.579 467.156 468.581C464.969 468.585 462.786 468.589 460.602 468.6C460.283 468.6 459.969 468.602 459.657 468.604C459.349 468.606 459.043 468.609 458.737 468.609C458.129 468.609 457.522 468.611 456.917 468.613C456.314 468.615 455.711 468.617 455.109 468.617Z" fill="#022636"/>
<path d="M866.693 491.504C894.444 490.837 924.009 492.255 950.772 500C951.515 500.211 952.257 500.422 953.017 500.641C955.438 501.35 957.851 502.093 960.265 502.844C961.395 503.181 961.395 503.181 962.551 503.527C963.26 503.763 963.977 504 964.703 504.236C965.336 504.438 965.968 504.632 966.61 504.843C969.326 506.379 971.174 508.286 972.71 510.969C973.292 513.669 973.25 516.285 973.199 519.044C973.199 519.837 973.208 520.638 973.208 521.457C973.208 524.081 973.182 526.705 973.149 529.337C973.149 531.16 973.14 532.982 973.14 534.813C973.132 538.627 973.106 542.449 973.073 546.271C973.031 551.174 973.014 556.084 972.997 560.986C972.988 565.661 972.963 570.335 972.938 575.001C972.938 575.896 972.929 576.798 972.929 577.718C972.912 580.241 972.896 582.764 972.87 585.278C972.87 586.037 972.862 586.788 972.862 587.565C972.803 592.711 972.803 592.711 971.866 593.656C965.411 595.133 960.281 592.889 954.569 590.172C922.38 574.875 875.358 566.176 840.688 576.832C833.803 579.363 830.496 582.544 826.842 588.746C825.366 593.766 824.792 598.981 826.581 604.009C836.917 622.141 866.195 631.186 884.673 637.666C911.968 647.454 941.989 660.532 962.585 681.406C963.547 682.343 963.547 682.343 964.534 683.305C965.285 684.064 966.036 684.832 966.804 685.625C967.285 686.115 967.774 686.596 968.272 687.102C980.245 699.775 987.492 715.823 990.429 732.875C990.572 733.483 990.716 734.09 990.867 734.723C991.382 737.718 991.424 740.671 991.441 743.701C991.45 744.342 991.45 744.983 991.458 745.633C991.466 746.991 991.475 748.341 991.475 749.691C991.483 751.716 991.509 753.741 991.534 755.766C991.728 784.496 979.688 808.737 960.155 829.215C928.835 859.581 882.116 866.677 840.241 866.483C821.156 866.171 801.623 864.745 782.866 861.125C782.149 860.982 781.44 860.847 780.706 860.712C740.561 852.789 740.561 852.789 730.554 841.719C729.136 838.884 729.575 835.678 729.575 832.556C729.566 831.788 729.566 831.012 729.558 830.21C729.55 827.645 729.541 825.08 729.541 822.507C729.533 820.726 729.524 818.946 729.524 817.157C729.516 813.42 729.507 809.673 729.507 805.936C729.499 801.143 729.482 796.351 729.457 791.55C729.44 787.871 729.44 784.184 729.44 780.505C729.431 778.733 729.423 776.97 729.415 775.198C729.398 772.726 729.406 770.253 729.406 767.781C729.398 767.047 729.389 766.321 729.381 765.571C729.415 761.335 729.971 758.517 732.241 754.813C736.367 755.251 739.405 756.618 742.948 758.66C780.107 779.189 833.28 791.482 875.181 780.522C881.517 778.699 886.799 776.219 890.866 770.844C893.946 765.123 894.115 759.47 892.604 753.226C887.913 742.03 876.311 736.292 865.976 731.399C865.064 730.96 864.153 730.53 863.208 730.082C851.708 724.674 839.895 720.008 827.956 715.646C804.491 707.056 781.001 694.198 762.616 677.188C761.874 676.504 761.131 675.821 760.372 675.121C742.349 657.824 731.288 634.469 730.385 609.376C729.904 582.046 738.536 554.954 757.486 534.805C759.283 532.915 759.283 532.915 760.886 530.78C764.034 526.966 768.025 524.131 771.897 521.094C772.556 520.554 773.205 520.014 773.88 519.457C800.121 498.912 834.2 492.423 866.693 491.504Z" fill="#022736"/>
<defs>
<linearGradient id="paint0_linear_303_10" x1="100" y1="100" x2="1207.41" y2="1151.12" gradientUnits="userSpaceOnUse">
<stop stop-color="#12CDFE"/>
<stop offset="1" stop-color="#0289F4"/>
</linearGradient>
</defs>
</svg>
